<svg width="18" height="18" viewBox="0 0 18 18" fill="none" xmlns="http://www.w3.org/2000/svg">
<path d="M9 0C4.03711 0 0 4.03711 0 9C0 13.9629 4.03711 18 9 18C13.9629 18 18 13.9629 18 9C18 4.03711 13.9629 0 9 0ZM9 1.5C10.9014 1.5 12.624 2.21484 13.9453 3.375C13.8047 3.57129 13.6143 3.80859 13.3125 4.10156C12.6709 4.72266 11.6455 5.46973 10.0781 6.04688C9.01758 4.08691 7.97754 2.61328 7.28906 1.6875C7.83691 1.56152 8.41113 1.5 9 1.5ZM5.8125 2.20312C6.42773 3.00879 7.52344 4.50293 8.625 6.49219C5.5752 7.30078 2.77734 7.40332 1.66406 7.40625C2.16211 5.08887 3.7207 3.18164 5.8125 2.20312ZM14.9766 4.47656C15.8906 5.68652 16.459 7.18359 16.5 8.8125C15.832 8.66309 14.8477 8.5166 13.5703 8.50781C12.9053 8.50488 12.1523 8.55176 11.3438 8.64844C11.1562 8.2207 10.9541 7.80762 10.7578 7.40625C12.4395 6.76172 13.585 5.91211 14.3438 5.17969C14.6016 4.92773 14.8037 4.69629 14.9766 4.47656ZM9.30469 7.85156C9.47754 8.2002 9.65332 8.55762 9.82031 8.92969C6.61523 9.81738 4.3125 12.5361 3.32812 13.8984C2.19434 12.5859 1.5 10.875 1.5 9C1.5 8.96777 1.5 8.93848 1.5 8.90625C2.51367 8.91797 5.73633 8.84766 9.30469 7.85156ZM13.5703 9.98438C14.9092 9.98438 15.835 10.1719 16.3828 10.3125C16.0342 12.3105 14.9062 14.0244 13.3125 15.1406C13.0137 13.3477 12.5215 11.6426 11.9297 10.0781C12.5215 10.0195 13.0811 9.98438 13.5703 9.98438ZM10.4062 10.3359C11.0801 12.0469 11.6455 13.9248 11.9297 15.9141C11.0332 16.292 10.0371 16.5 9 16.5C7.28027 16.5 5.69238 15.9229 4.42969 14.9531C5.2002 13.8984 7.46484 11.0918 10.4062 10.3359Z" fill="#FF4081"/>
</svg>
